<svg id="visual" viewBox="0 0 960 540" width="960" height="540" xmlns="http://www.w3.org/2000/svg" xmlns:xlink="http://www.w3.org/1999/xlink" version="1.1"><rect x="0" y="0" width="960" height="540" fill="#001220"></rect><defs><linearGradient id="grad1_0" x1="43.8%" y1="0%" x2="100%" y2="100%"><stop offset="14.444444444444446%" stop-color="#9333ea" stop-opacity="1"></stop><stop offset="85.55555555555554%" stop-color="#9333ea" stop-opacity="1"></stop></linearGradient></defs><defs><linearGradient id="grad1_1" x1="43.8%" y1="0%" x2="100%" y2="100%"><stop offset="14.444444444444446%" stop-color="#9333ea" stop-opacity="1"></stop><stop offset="85.55555555555554%" stop-color="#3c40c2" stop-opacity="1"></stop></linearGradient></defs><defs><linearGradient id="grad1_2" x1="43.8%" y1="0%" x2="100%" y2="100%"><stop offset="14.444444444444446%" stop-color="#00388f" stop-opacity="1"></stop><stop offset="85.55555555555554%" stop-color="#3c40c2" stop-opacity="1"></stop></linearGradient></defs><defs><linearGradient id="grad1_3" x1="43.8%" y1="0%" x2="100%" y2="100%"><stop offset="14.444444444444446%" stop-color="#00388f" stop-opacity="1"></stop><stop offset="85.55555555555554%" stop-color="#002756" stop-opacity="1"></stop></linearGradient></defs><defs><linearGradient id="grad1_4" x1="43.8%" y1="0%" x2="100%" y2="100%"><stop offset="14.444444444444446%" stop-color="#001220" stop-opacity="1"></stop><stop offset="85.55555555555554%" stop-color="#002756" stop-opacity="1"></stop></linearGradient></defs><defs><linearGradient id="grad2_0" x1="0%" y1="0%" x2="56.3%" y2="100%"><stop offset="14.444444444444446%" stop-color="#9333ea" stop-opacity="1"></stop><stop offset="85.55555555555554%" stop-color="#9333ea" stop-opacity="1"></stop></linearGradient></defs><defs><linearGradient id="grad2_1" x1="0%" y1="0%" x2="56.3%" y2="100%"><stop offset="14.444444444444446%" stop-color="#3c40c2" stop-opacity="1"></stop><stop offset="85.55555555555554%" stop-color="#9333ea" stop-opacity="1"></stop></linearGradient></defs><defs><linearGradient id="grad2_2" x1="0%" y1="0%" x2="56.3%" y2="100%"><stop offset="14.444444444444446%" stop-color="#3c40c2" stop-opacity="1"></stop><stop offset="85.55555555555554%" stop-color="#00388f" stop-opacity="1"></stop></linearGradient></defs><defs><linearGradient id="grad2_3" x1="0%" y1="0%" x2="56.3%" y2="100%"><stop offset="14.444444444444446%" stop-color="#002756" stop-opacity="1"></stop><stop offset="85.55555555555554%" stop-color="#00388f" stop-opacity="1"></stop></linearGradient></defs><defs><linearGradient id="grad2_4" x1="0%" y1="0%" x2="56.3%" y2="100%"><stop offset="14.444444444444446%" stop-color="#002756" stop-opacity="1"></stop><stop offset="85.55555555555554%" stop-color="#001220" stop-opacity="1"></stop></linearGradient></defs><g transform="translate(960, 0)"><path d="M0 405C-38.1 378.4 -76.1 351.9 -106.6 328.1C-137.1 304.3 -160 283.3 -196.9 271C-233.8 258.7 -284.6 255.1 -319.6 232.2C-354.5 209.3 -373.6 167.1 -385.2 125.2C-396.8 83.2 -400.9 41.6 -405 0L0 0Z" fill="#001d3a"></path><path d="M0 324C-30.4 302.8 -60.9 281.5 -85.3 262.5C-109.7 243.5 -128 226.7 -157.5 216.8C-187 207 -227.7 204.1 -255.6 185.7C-283.6 167.4 -298.9 133.7 -308.1 100.1C-317.4 66.6 -320.7 33.3 -324 0L0 0Z" fill="#003072"></path><path d="M0 243C-22.8 227.1 -45.7 211.1 -64 196.9C-82.3 182.6 -96 170 -118.1 162.6C-140.3 155.2 -170.8 153.1 -191.7 139.3C-212.7 125.6 -224.2 100.2 -231.1 75.1C-238.1 49.9 -240.5 25 -243 0L0 0Z" fill="#003da9"></path><path d="M0 162C-15.2 151.4 -30.4 140.8 -42.6 131.2C-54.8 121.7 -64 113.3 -78.8 108.4C-93.5 103.5 -113.8 102 -127.8 92.9C-141.8 83.7 -149.4 66.8 -154.1 50.1C-158.7 33.3 -160.4 16.6 -162 0L0 0Z" fill="#673dd8"></path><path d="M0 81C-7.6 75.7 -15.2 70.4 -21.3 65.6C-27.4 60.9 -32 56.7 -39.4 54.2C-46.8 51.7 -56.9 51 -63.9 46.4C-70.9 41.9 -74.7 33.4 -77 25C-79.4 16.6 -80.2 8.3 -81 0L0 0Z" fill="#9333ea"></path></g><g transform="translate(0, 540)"><path d="M0 -405C32.6 -373.5 65.1 -342.1 109.1 -335.7C153 -329.4 208.4 -348.2 238.1 -327.7C267.7 -307.1 271.7 -247.1 282.3 -205.1C293 -163.1 310.4 -139 331.9 -107.8C353.5 -76.6 379.2 -38.3 405 0L0 0Z" fill="#001d3a"></path><path d="M0 -324C26.1 -298.8 52.1 -273.6 87.3 -268.6C122.4 -263.5 166.7 -278.6 190.4 -262.1C214.2 -245.7 217.3 -197.7 225.9 -164.1C234.4 -130.5 248.3 -111.2 265.5 -86.3C282.8 -61.3 303.4 -30.7 324 0L0 0Z" fill="#003072"></path><path d="M0 -243C19.5 -224.1 39.1 -205.2 65.4 -201.4C91.8 -197.6 125 -208.9 142.8 -196.6C160.6 -184.3 163 -148.3 169.4 -123.1C175.8 -97.9 186.2 -83.4 199.2 -64.7C212.1 -46 227.5 -23 243 0L0 0Z" fill="#003da9"></path><path d="M0 -162C13 -149.4 26.1 -136.8 43.6 -134.3C61.2 -131.8 83.4 -139.3 95.2 -131.1C107.1 -122.8 108.7 -98.9 112.9 -82.1C117.2 -65.3 124.1 -55.6 132.8 -43.1C141.4 -30.7 151.7 -15.3 162 0L0 0Z" fill="#673dd8"></path><path d="M0 -81C6.5 -74.7 13 -68.4 21.8 -67.1C30.6 -65.9 41.7 -69.6 47.6 -65.5C53.5 -61.4 54.3 -49.4 56.5 -41C58.6 -32.6 62.1 -27.8 66.4 -21.6C70.7 -15.3 75.8 -7.7 81 0L0 0Z" fill="#9333ea"></path></g></svg>