<svg id="visual" viewBox="0 0 900 600" width="900" height="600" xmlns="http://www.w3.org/2000/svg" xmlns:xlink="http://www.w3.org/1999/xlink" version="1.1"><path d="M0 366L21.5 371.3C43 376.7 86 387.3 128.8 397.7C171.7 408 214.3 418 257.2 416.8C300 415.7 343 403.3 385.8 404.7C428.7 406 471.3 421 514.2 421C557 421 600 406 642.8 398C685.7 390 728.3 389 771.2 392C814 395 857 402 878.5 405.5L900 409L900 601L878.5 601C857 601 814 601 771.2 601C728.3 601 685.7 601 642.8 601C600 601 557 601 514.2 601C471.3 601 428.7 601 385.8 601C343 601 300 601 257.2 601C214.3 601 171.7 601 128.8 601C86 601 43 601 21.5 601L0 601Z" fill="#3b82f6"></path><path d="M0 473L21.5 459.7C43 446.3 86 419.7 128.8 417.7C171.7 415.7 214.3 438.3 257.2 446.7C300 455 343 449 385.8 450.7C428.7 452.3 471.3 461.7 514.2 467.5C557 473.3 600 475.7 642.8 466.2C685.7 456.7 728.3 435.3 771.2 433.5C814 431.7 857 449.3 878.5 458.2L900 467L900 601L878.5 601C857 601 814 601 771.2 601C728.3 601 685.7 601 642.8 601C600 601 557 601 514.2 601C471.3 601 428.7 601 385.8 601C343 601 300 601 257.2 601C214.3 601 171.7 601 128.8 601C86 601 43 601 21.5 601L0 601Z" fill="#009ff2"></path><path d="M0 490L21.5 485C43 480 86 470 128.8 470.7C171.7 471.3 214.3 482.7 257.2 489.8C300 497 343 500 385.8 497.3C428.7 494.7 471.3 486.3 514.2 478C557 469.7 600 461.3 642.8 463.2C685.7 465 728.3 477 771.2 485.7C814 494.3 857 499.7 878.5 502.3L900 505L900 601L878.5 601C857 601 814 601 771.2 601C728.3 601 685.7 601 642.8 601C600 601 557 601 514.2 601C471.3 601 428.7 601 385.8 601C343 601 300 601 257.2 601C214.3 601 171.7 601 128.8 601C86 601 43 601 21.5 601L0 601Z" fill="#00b4e0"></path><path d="M0 487L21.5 487C43 487 86 487 128.8 487.8C171.7 488.7 214.3 490.3 257.2 494.5C300 498.7 343 505.3 385.8 509.2C428.7 513 471.3 514 514.2 517.2C557 520.3 600 525.7 642.8 526.7C685.7 527.7 728.3 524.3 771.2 520.2C814 516 857 511 878.5 508.5L900 506L900 601L878.5 601C857 601 814 601 771.2 601C728.3 601 685.7 601 642.8 601C600 601 557 601 514.2 601C471.3 601 428.7 601 385.8 601C343 601 300 601 257.2 601C214.3 601 171.7 601 128.8 601C86 601 43 601 21.5 601L0 601Z" fill="#00c2bb"></path><path d="M0 532L21.5 535.2C43 538.3 86 544.7 128.8 547.7C171.7 550.7 214.3 550.3 257.2 549.3C300 548.3 343 546.7 385.8 542.3C428.7 538 471.3 531 514.2 528C557 525 600 526 642.8 532.3C685.7 538.7 728.3 550.3 771.2 558.2C814 566 857 570 878.5 572L900 574L900 601L878.5 601C857 601 814 601 771.2 601C728.3 601 685.7 601 642.8 601C600 601 557 601 514.2 601C471.3 601 428.7 601 385.8 601C343 601 300 601 257.2 601C214.3 601 171.7 601 128.8 601C86 601 43 601 21.5 601L0 601Z" fill="#22c55e"></path></svg>