<svg id="visual" viewBox="0 0 900 600" width="900" height="600" xmlns="http://www.w3.org/2000/svg" xmlns:xlink="http://www.w3.org/1999/xlink" version="1.1"><path d="M0 232L21.5 226.7C43 221.3 86 210.7 128.8 200.3C171.7 190 214.3 180 257.2 181.2C300 182.3 343 194.7 385.8 193.3C428.7 192 471.3 177 514.2 177C557 177 600 192 642.8 200C685.7 208 728.3 209 771.2 206C814 203 857 196 878.5 192.5L900 189L900 0L878.5 0C857 0 814 0 771.2 0C728.3 0 685.7 0 642.8 0C600 0 557 0 514.2 0C471.3 0 428.7 0 385.8 0C343 0 300 0 257.2 0C214.3 0 171.7 0 128.8 0C86 0 43 0 21.5 0L0 0Z" fill="#3b82f6"></path><path d="M0 125L21.5 138.3C43 151.7 86 178.3 128.8 180.3C171.7 182.3 214.3 159.7 257.2 151.3C300 143 343 149 385.8 147.3C428.7 145.7 471.3 136.3 514.2 130.5C557 124.7 600 122.3 642.8 131.8C685.7 141.3 728.3 162.7 771.2 164.5C814 166.3 857 148.7 878.5 139.8L900 131L900 0L878.5 0C857 0 814 0 771.2 0C728.3 0 685.7 0 642.8 0C600 0 557 0 514.2 0C471.3 0 428.7 0 385.8 0C343 0 300 0 257.2 0C214.3 0 171.7 0 128.8 0C86 0 43 0 21.5 0L0 0Z" fill="#4b75f9"></path><path d="M0 108L21.5 113C43 118 86 128 128.8 127.3C171.7 126.7 214.3 115.3 257.2 108.2C300 101 343 98 385.8 100.7C428.7 103.3 471.3 111.7 514.2 120C557 128.3 600 136.7 642.8 134.8C685.7 133 728.3 121 771.2 112.3C814 103.7 857 98.3 878.5 95.7L900 93L900 0L878.5 0C857 0 814 0 771.2 0C728.3 0 685.7 0 642.8 0C600 0 557 0 514.2 0C471.3 0 428.7 0 385.8 0C343 0 300 0 257.2 0C214.3 0 171.7 0 128.8 0C86 0 43 0 21.5 0L0 0Z" fill="#6265f8"></path><path d="M0 111L21.5 111C43 111 86 111 128.8 110.2C171.7 109.3 214.3 107.7 257.2 103.5C300 99.3 343 92.7 385.8 88.8C428.7 85 471.3 84 514.2 80.8C557 77.7 600 72.3 642.8 71.3C685.7 70.3 728.3 73.7 771.2 77.8C814 82 857 87 878.5 89.5L900 92L900 0L878.5 0C857 0 814 0 771.2 0C728.3 0 685.7 0 642.8 0C600 0 557 0 514.2 0C471.3 0 428.7 0 385.8 0C343 0 300 0 257.2 0C214.3 0 171.7 0 128.8 0C86 0 43 0 21.5 0L0 0Z" fill="#7b51f3"></path><path d="M0 66L21.5 62.8C43 59.7 86 53.3 128.8 50.3C171.7 47.3 214.3 47.7 257.2 48.7C300 49.7 343 51.3 385.8 55.7C428.7 60 471.3 67 514.2 70C557 73 600 72 642.8 65.7C685.7 59.3 728.3 47.7 771.2 39.8C814 32 857 28 878.5 26L900 24L900 0L878.5 0C857 0 814 0 771.2 0C728.3 0 685.7 0 642.8 0C600 0 557 0 514.2 0C471.3 0 428.7 0 385.8 0C343 0 300 0 257.2 0C214.3 0 171.7 0 128.8 0C86 0 43 0 21.5 0L0 0Z" fill="#9333ea"></path></svg>